<svg xmlns="http://www.w3.org/2000/svg" width="26" height="25" viewBox="0 0 26 25" fill="none">
  <path d="M26 12.475C26 10.7687 24.6187 9.87498 22.75 9.87498H17.3062C17.7125 8.41248 17.875 7.03124 17.875 5.81249C17.875 1.1 16.575 0.125 15.4375 0.125C14.7062 0.125 14.1375 0.20625 13.4062 0.612499C13.1625 0.774999 13.0812 0.937498 13 1.18125L12.1875 5.56874C11.2937 7.84373 9.1 9.87498 7.3125 11.2562V22.875C7.9625 22.875 8.6125 23.2 9.425 23.6062C10.3187 24.0125 11.2125 24.4999 12.1875 24.4999H19.9062C21.5312 24.4999 22.75 23.2 22.75 22.0625C22.75 21.8187 22.75 21.6562 22.6687 21.4937C23.6437 21.0875 24.375 20.275 24.375 19.2187C24.375 18.7312 24.2937 18.325 24.1312 17.9187C24.7812 17.5125 25.35 16.7812 25.35 15.9687C25.35 15.4812 25.1062 14.9937 24.8625 14.5875C25.5125 14.1 26 13.2875 26 12.475ZM24.2937 12.475C24.2937 13.5312 23.2375 13.6125 23.075 14.1C22.9125 14.6687 23.725 14.8312 23.725 15.8062C23.725 16.7812 22.5062 16.7812 22.3437 17.35C22.1812 18 22.75 18.1625 22.75 19.1375V19.3C22.5875 20.1125 21.3687 20.1937 21.125 20.5187C20.8812 20.925 21.125 21.0875 21.125 21.9812C21.125 22.4687 20.5562 22.7937 19.9062 22.7937H12.1875C11.5375 22.7937 10.8875 22.4687 10.075 22.0625C9.425 21.7375 8.775 21.4125 8.125 21.25V12.7187C10.1562 11.175 12.7562 8.89998 13.7312 6.05624V5.89374L14.4625 1.83125C14.7875 1.75 15.0312 1.75 15.4375 1.75C15.6 1.75 16.25 2.72499 16.25 5.81249C16.25 7.03124 16.0062 8.33123 15.6 9.87498H15.4375C14.95 9.87498 14.625 10.2 14.625 10.6875C14.625 11.175 14.95 11.5 15.4375 11.5H22.75C23.5625 11.5 24.2937 11.9062 24.2937 12.475Z" fill="#ACACAC"/>
  <path d="M6.49999 24.4999H1.625C0.731248 24.4999 0 23.7687 0 22.8749V11.5C0 10.6062 0.731248 9.87495 1.625 9.87495H6.49999C7.39373 9.87495 8.12498 10.6062 8.12498 11.5V22.8749C8.12498 23.7687 7.39373 24.4999 6.49999 24.4999ZM1.625 11.5V22.8749H6.49999V11.5H1.625Z" fill="#ACACAC"/>
</svg>