<svg xmlns="http://www.w3.org/2000/svg" width="25" height="25" viewBox="0 0 25 25" fill="none">
  <path d="M12.5 0C10.071 0.00461106 7.69573 0.714878 5.66355 2.04429C3.63137 3.37369 2.02998 5.26487 1.05444 7.48745C0.0788904 9.71003 -0.228707 12.1681 0.169111 14.5622C0.56693 16.9564 1.65299 19.1833 3.29502 20.9717C4.46777 22.2418 5.89112 23.2555 7.47538 23.9488C9.05963 24.6421 10.7704 25 12.5 25C14.2296 25 15.9404 24.6421 17.5246 23.9488C19.1089 23.2555 20.5322 22.2418 21.705 20.9717C23.347 19.1833 24.4331 16.9564 24.8309 14.5622C25.2287 12.1681 24.9211 9.71003 23.9456 7.48745C22.97 5.26487 21.3686 3.37369 19.3364 2.04429C17.3043 0.714878 14.929 0.00461106 12.5 0V0ZM12.5 22.5233C9.90565 22.5193 7.41398 21.5101 5.5493 19.7079C6.11543 18.3309 7.07849 17.1531 8.31612 16.3242C9.55375 15.4954 11.0101 15.0528 12.5 15.0528C13.9899 15.0528 15.4463 15.4954 16.6839 16.3242C17.9215 17.1531 18.8846 18.3309 19.4507 19.7079C17.586 21.5101 15.0943 22.5193 12.5 22.5233ZM9.99524 10.0103C9.99524 9.51538 10.1421 9.03153 10.4174 8.61998C10.6926 8.20844 11.0838 7.88767 11.5415 7.69826C11.9992 7.50884 12.5028 7.45928 12.9887 7.55585C13.4745 7.65241 13.9208 7.89076 14.2711 8.24075C14.6214 8.59074 14.86 9.03666 14.9566 9.52212C15.0533 10.0076 15.0037 10.5108 14.8141 10.968C14.6245 11.4253 14.3035 11.8162 13.8916 12.0912C13.4797 12.3662 12.9954 12.5129 12.5 12.5129C11.8357 12.5129 11.1986 12.2493 10.7289 11.7799C10.2591 11.3106 9.99524 10.6741 9.99524 10.0103ZM21.1539 17.5181C20.035 15.6058 18.3128 14.1184 16.2571 13.2887C16.8948 12.5663 17.3103 11.6754 17.4537 10.7229C17.5972 9.77037 17.4625 8.79673 17.0659 7.91881C16.6692 7.04088 16.0274 6.29596 15.2175 5.77342C14.4077 5.25089 13.4641 4.97295 12.5 4.97295C11.5359 4.97295 10.5923 5.25089 9.78245 5.77342C8.97257 6.29596 8.33079 7.04088 7.93414 7.91881C7.53749 8.79673 7.4028 9.77037 7.54625 10.7229C7.6897 11.6754 8.10519 12.5663 8.74286 13.2887C6.68721 14.1184 4.96502 15.6058 3.84606 17.5181C2.9543 16.0004 2.48312 14.2728 2.48097 12.5129C2.48097 9.85802 3.53654 7.31185 5.41548 5.43455C7.29441 3.55725 9.84279 2.50259 12.5 2.50259C15.1572 2.50259 17.7056 3.55725 19.5845 5.43455C21.4635 7.31185 22.519 9.85802 22.519 12.5129C22.5169 14.2728 22.0457 16.0004 21.1539 17.5181V17.5181Z" fill="url(#paint0_linear_363_170)"/>
  <defs>
    <linearGradient id="paint0_linear_363_170" x1="12.5" y1="0" x2="12.5" y2="25" gradientUnits="userSpaceOnUse">
      <stop stop-color="#6A59A7"/>
      <stop offset="1" stop-color="#EDABC6"/>
    </linearGradient>
  </defs>
</svg>