<svg xmlns="http://www.w3.org/2000/svg" width="16" height="21" viewBox="0 0 16 21" fill="none">
  <path d="M15.962 7.93489C15.8299 6.48272 15.3439 5.09142 14.5514 3.89649C13.7589 2.70156 12.6869 1.74372 11.4398 1.11623C10.1927 0.488745 8.81303 0.213002 7.43505 0.315854C6.05707 0.418706 4.7278 0.896647 3.57666 1.70314C2.58771 2.4015 1.7575 3.3225 1.14566 4.39998C0.533815 5.47746 0.155536 6.68467 0.037993 7.93489C-0.0773127 9.17692 0.0706259 10.4305 0.471076 11.6046C0.871525 12.7788 1.51444 13.8441 2.35319 14.7232L7.34121 20.0008C7.4287 20.094 7.53279 20.1679 7.64747 20.2184C7.76216 20.2689 7.88517 20.2948 8.00941 20.2948C8.13365 20.2948 8.25666 20.2689 8.37135 20.2184C8.48604 20.1679 8.59013 20.094 8.67762 20.0008L13.6468 14.7232C14.4856 13.8441 15.1285 12.7788 15.5289 11.6046C15.9294 10.4305 16.0773 9.17692 15.962 7.93489ZM12.3292 13.3218L8 17.8938L3.67078 13.3218C3.03277 12.648 2.54405 11.8333 2.23975 10.9362C1.93545 10.0392 1.82312 9.08204 1.91085 8.13367C1.99915 7.17068 2.28897 6.24045 2.75935 5.41023C3.22974 4.58 3.86894 3.87054 4.63073 3.33313C5.62923 2.63267 6.80128 2.25902 8 2.25902C9.19872 2.25902 10.3708 2.63267 11.3693 3.33313C12.1288 3.86846 12.7665 4.57479 13.2368 5.40138C13.7071 6.22796 13.9982 7.15428 14.0891 8.11379C14.1797 9.06538 14.0688 10.0263 13.7644 10.9271C13.4601 11.8278 12.9698 12.6458 12.3292 13.3218ZM8 4.32703C7.16237 4.32703 6.34356 4.58934 5.6471 5.08079C4.95064 5.57224 4.40781 6.27076 4.08727 7.08801C3.76672 7.90526 3.68285 8.80454 3.84627 9.67213C4.00968 10.5397 4.41303 11.3367 5.00533 11.9622C5.59762 12.5877 6.35224 13.0136 7.17377 13.1862C7.9953 13.3588 8.84684 13.2702 9.62071 12.9317C10.3946 12.5932 11.056 12.0199 11.5214 11.2844C11.9867 10.5489 12.2351 9.68417 12.2351 8.79958C12.2326 7.6142 11.7856 6.47811 10.9919 5.63991C10.1982 4.80171 9.12246 4.32966 8 4.32703ZM8 11.2843C7.53465 11.2843 7.07976 11.1386 6.69283 10.8656C6.30591 10.5925 6.00434 10.2045 5.82626 9.75046C5.64818 9.29643 5.60159 8.79683 5.69237 8.31483C5.78315 7.83284 6.00724 7.3901 6.33629 7.0426C6.66534 6.6951 7.08458 6.45845 7.54098 6.36258C7.99739 6.2667 8.47047 6.31591 8.90039 6.50397C9.33032 6.69204 9.69778 7.01051 9.95631 7.41913C10.2148 7.82774 10.3528 8.30815 10.3528 8.79958C10.3528 9.45858 10.105 10.0906 9.66371 10.5566C9.22247 11.0225 8.62401 11.2843 8 11.2843Z" fill="#634F9E"/>
</svg>