<svg xmlns="http://www.w3.org/2000/svg" width="29" height="26" viewBox="0 0 29 26" fill="none">
  <path d="M26.3561 2.69978C24.8187 1.1728 22.7807 0.240818 20.6102 0.0721854C18.4398 -0.0964477 16.28 0.509386 14.5211 1.78025C12.6757 0.420554 10.3788 -0.195999 8.09293 0.0547536C5.80705 0.305506 3.70197 1.40494 2.20161 3.13165C0.701255 4.85836 -0.082937 7.08409 0.00695511 9.36063C0.0968472 11.6372 1.05415 13.7954 2.68607 15.4008L11.6929 24.3374C12.4471 25.0727 13.4629 25.4848 14.5211 25.4848C15.5793 25.4848 16.5951 25.0727 17.3493 24.3374L26.3561 15.4008C28.0495 13.713 29 11.4299 29 9.05027C29 6.6706 28.0495 4.38759 26.3561 2.69978ZM24.3111 13.418L15.3043 22.3403C15.2018 22.4429 15.0798 22.5242 14.9454 22.5798C14.8109 22.6353 14.6667 22.6639 14.5211 22.6639C14.3754 22.6639 14.2312 22.6353 14.0968 22.5798C13.9624 22.5242 13.8404 22.4429 13.7379 22.3403L4.73109 13.3749C3.59365 12.2231 2.95673 10.6759 2.95673 9.06464C2.95673 7.45336 3.59365 5.90614 4.73109 4.75435C5.89016 3.62073 7.4534 2.98508 9.0822 2.98508C10.711 2.98508 12.2742 3.62073 13.4333 4.75435C13.5681 4.88902 13.7285 4.9959 13.9053 5.06885C14.082 5.14179 14.2716 5.17934 14.4631 5.17934C14.6545 5.17934 14.8441 5.14179 15.0208 5.06885C15.1976 4.9959 15.358 4.88902 15.4928 4.75435C16.6519 3.62073 18.2151 2.98508 19.8439 2.98508C21.4727 2.98508 23.036 3.62073 24.195 4.75435C25.3481 5.89105 26.006 7.42988 26.0276 9.0412C26.0493 10.6525 25.4331 12.2082 24.3111 13.3749V13.418Z" fill="url(#paint0_linear_378_525)"/>
  <defs>
    <linearGradient id="paint0_linear_378_525" x1="11.6429" y1="-4.22234" x2="25.1849" y2="-1.68101" gradientUnits="userSpaceOnUse">
      <stop stop-color="#6A59A7"/>
      <stop offset="1" stop-color="#EDABC6"/>
    </linearGradient>
  </defs>
</svg>