<svg xmlns="http://www.w3.org/2000/svg" width="33" height="33" viewBox="0 0 33 33" fill="none">
  <path d="M18.0469 23.2031C18.0469 23.5091 17.9562 23.8081 17.7862 24.0625C17.6162 24.3169 17.3746 24.5152 17.092 24.6323C16.8093 24.7493 16.4983 24.78 16.1982 24.7203C15.8982 24.6606 15.6225 24.5133 15.4062 24.2969C15.1899 24.0806 15.0425 23.805 14.9829 23.5049C14.9232 23.2048 14.9538 22.8938 15.0709 22.6112C15.188 22.3285 15.3862 22.0869 15.6406 21.9169C15.895 21.747 16.1941 21.6563 16.5 21.6563C16.9103 21.6563 17.3037 21.8192 17.5938 22.1093C17.8839 22.3994 18.0469 22.7929 18.0469 23.2031ZM16.5 9.28125C13.6563 9.28125 11.3438 11.3631 11.3438 13.9219V14.4375C11.3438 14.711 11.4524 14.9733 11.6458 15.1667C11.8392 15.3601 12.1015 15.4688 12.375 15.4688C12.6485 15.4688 12.9108 15.3601 13.1042 15.1667C13.2976 14.9733 13.4063 14.711 13.4063 14.4375V13.9219C13.4063 12.5039 14.7946 11.3438 16.5 11.3438C18.2054 11.3438 19.5938 12.5039 19.5938 13.9219C19.5938 15.3398 18.2054 16.5 16.5 16.5C16.2265 16.5 15.9642 16.6087 15.7708 16.802C15.5774 16.9954 15.4688 17.2577 15.4688 17.5313V18.5625C15.4688 18.836 15.5774 19.0983 15.7708 19.2917C15.9642 19.4851 16.2265 19.5938 16.5 19.5938C16.7735 19.5938 17.0358 19.4851 17.2292 19.2917C17.4226 19.0983 17.5313 18.836 17.5313 18.5625V18.4697C19.8825 18.0379 21.6563 16.1623 21.6563 13.9219C21.6563 11.3631 19.3437 9.28125 16.5 9.28125ZM29.9063 16.5C29.9063 19.1515 29.12 21.7435 27.6469 23.9481C26.1738 26.1528 24.08 27.8711 21.6304 28.8858C19.1807 29.9004 16.4851 30.1659 13.8846 29.6487C11.284 29.1314 8.89525 27.8546 7.02036 25.9797C5.14546 24.1048 3.86864 21.716 3.35135 19.1154C2.83407 16.5149 3.09956 13.8193 4.11425 11.3697C5.12893 8.91998 6.84725 6.82621 9.05189 5.35311C11.2565 3.88001 13.8485 3.09375 16.5 3.09375C20.0544 3.0975 23.4622 4.51115 25.9755 7.0245C28.4889 9.53784 29.9025 12.9456 29.9063 16.5ZM27.8438 16.5C27.8438 14.2564 27.1785 12.0632 25.932 10.1978C24.6855 8.33228 22.9139 6.87832 20.8411 6.01974C18.7683 5.16116 16.4874 4.93652 14.287 5.37422C12.0865 5.81192 10.0652 6.89231 8.47876 8.47876C6.89231 10.0652 5.81192 12.0865 5.37422 14.2869C4.93652 16.4874 5.16117 18.7683 6.01975 20.8411C6.87833 22.9139 8.33229 24.6855 10.1978 25.932C12.0632 27.1785 14.2564 27.8438 16.5 27.8438C19.5075 27.8403 22.3909 26.6441 24.5175 24.5175C26.6441 22.3909 27.8403 19.5075 27.8438 16.5Z" fill="url(#paint0_linear_381_331)"/>
  <defs>
    <linearGradient id="paint0_linear_381_331" x1="13.8584" y1="-1.34856" x2="26.4767" y2="0.732397" gradientUnits="userSpaceOnUse">
      <stop stop-color="#6A59A7"/>
      <stop offset="1" stop-color="#EDABC6"/>
    </linearGradient>
  </defs>
</svg>