<svg xmlns="http://www.w3.org/2000/svg" width="36" height="36" viewBox="0 0 36 36" fill="none">
  <path d="M18.0001 11.25C16.665 11.25 15.36 11.6459 14.25 12.3876C13.1399 13.1293 12.2748 14.1835 11.7639 15.4169C11.253 16.6503 11.1193 18.0075 11.3798 19.3169C11.6402 20.6262 12.2831 21.829 13.2271 22.773C14.1711 23.717 15.3738 24.3599 16.6832 24.6203C17.9926 24.8808 19.3498 24.7471 20.5832 24.2362C21.8166 23.7253 22.8708 22.8601 23.6125 21.7501C24.3542 20.6401 24.7501 19.335 24.7501 18C24.7482 16.2104 24.0364 14.4946 22.771 13.2291C21.5055 11.9636 19.7897 11.2519 18.0001 11.25ZM18.0001 22.5C17.11 22.5 16.24 22.2361 15.5 21.7416C14.76 21.2471 14.1832 20.5443 13.8426 19.7221C13.502 18.8998 13.4129 17.995 13.5865 17.1221C13.7602 16.2492 14.1887 15.4474 14.8181 14.818C15.4474 14.1887 16.2492 13.7601 17.1222 13.5865C17.9951 13.4128 18.8999 13.502 19.7221 13.8425C20.5444 14.1831 21.2472 14.7599 21.7417 15.4999C22.2361 16.24 22.5001 17.11 22.5001 18C22.5001 19.1935 22.026 20.3381 21.182 21.182C20.3381 22.0259 19.1935 22.5 18.0001 22.5ZM30.3751 18.3038C30.3807 18.1013 30.3807 17.8988 30.3751 17.6963L32.4732 15.075C32.5832 14.9374 32.6594 14.7758 32.6955 14.6034C32.7317 14.4309 32.7268 14.2524 32.6813 14.0822C32.3374 12.7893 31.8228 11.5479 31.1513 10.3908C31.0634 10.2394 30.9413 10.1105 30.7948 10.0146C30.6484 9.91865 30.4815 9.85823 30.3076 9.83813L26.9719 9.46688C26.8332 9.32063 26.6926 9.18 26.5501 9.045L26.1563 5.70094C26.1361 5.52686 26.0754 5.35993 25.9792 5.21344C25.883 5.06695 25.7539 4.94496 25.6023 4.85719C24.4447 4.1869 23.2034 3.6729 21.9108 3.3286C21.7405 3.28331 21.5619 3.27868 21.3895 3.31507C21.217 3.35147 21.0555 3.42787 20.918 3.53813L18.3038 5.625H17.6963L15.0751 3.5311C14.9374 3.42108 14.7759 3.34493 14.6034 3.30878C14.431 3.27263 14.2525 3.27749 14.0823 3.32297C12.7896 3.66754 11.5483 4.18203 10.3908 4.85297C10.2394 4.9409 10.1106 5.06296 10.0147 5.20944C9.91872 5.35592 9.85829 5.52277 9.83819 5.69672L9.46694 9.03797C9.32069 9.17766 9.18006 9.31828 9.04506 9.45985L5.701 9.84375C5.52693 9.86401 5.35999 9.92465 5.2135 10.0208C5.06701 10.117 4.94502 10.2461 4.85725 10.3978C4.18696 11.5554 3.67296 12.7967 3.32866 14.0892C3.28337 14.2596 3.27874 14.4381 3.31514 14.6106C3.35153 14.783 3.42794 14.9445 3.53819 15.082L5.62506 17.6963V18.3038L3.53116 20.925C3.42114 21.0626 3.345 21.2242 3.30885 21.3966C3.2727 21.5691 3.27755 21.7476 3.32303 21.9178C3.66699 23.2107 4.1815 24.4521 4.85303 25.6092C4.94096 25.7607 5.06302 25.8895 5.2095 25.9854C5.35598 26.0814 5.52284 26.1418 5.69678 26.1619L9.03241 26.5331C9.1721 26.6794 9.31272 26.82 9.45428 26.955L9.84381 30.2991C9.86407 30.4731 9.92471 30.6401 10.0209 30.7866C10.1171 30.9331 10.2462 31.0551 10.3979 31.1428C11.5555 31.8131 12.7967 32.3271 14.0893 32.6714C14.2596 32.7167 14.4382 32.7213 14.6107 32.6849C14.7831 32.6485 14.9446 32.5721 15.0821 32.4619L17.6963 30.375C17.8988 30.3806 18.1013 30.3806 18.3038 30.375L20.9251 32.4731C21.0627 32.5831 21.2242 32.6593 21.3967 32.6954C21.5691 32.7316 21.7477 32.7267 21.9179 32.6813C23.2108 32.3373 24.4522 31.8228 25.6093 31.1513C25.7607 31.0633 25.8895 30.9413 25.9855 30.7948C26.0814 30.6483 26.1418 30.4815 26.1619 30.3075L26.5332 26.9719C26.6794 26.8331 26.8201 26.6925 26.9551 26.55L30.2991 26.1563C30.4732 26.136 30.6401 26.0754 30.7866 25.9792C30.9331 25.883 31.0551 25.7539 31.1429 25.6022C31.8132 24.4446 32.3272 23.2034 32.6715 21.9108C32.7168 21.7405 32.7214 21.5619 32.685 21.3894C32.6486 21.217 32.5722 21.0555 32.4619 20.918L30.3751 18.3038ZM28.111 17.3897C28.1349 17.7962 28.1349 18.2038 28.111 18.6103C28.0942 18.8886 28.1814 19.1633 28.3557 19.3809L30.3512 21.8742C30.1222 22.6019 29.829 23.3078 29.4751 23.9836L26.2969 24.3436C26.0202 24.3743 25.7646 24.5066 25.5798 24.7148C25.3091 25.0193 25.0208 25.3076 24.7163 25.5783C24.5081 25.7632 24.3758 26.0187 24.3451 26.2955L23.9921 29.4708C23.3164 29.8249 22.6105 30.1181 21.8827 30.3469L19.388 28.3514C19.1884 28.1919 18.9404 28.1051 18.6849 28.1053H18.6174C18.2109 28.1292 17.8033 28.1292 17.3968 28.1053C17.1185 28.0886 16.8438 28.1758 16.6262 28.35L14.1258 30.3469C13.3982 30.1179 12.6923 29.8247 12.0165 29.4708L11.6565 26.2969C11.6257 26.0201 11.4935 25.7646 11.2852 25.5797C10.9808 25.309 10.6925 25.0207 10.4218 24.7163C10.2369 24.508 9.98137 24.3757 9.7046 24.345L6.52928 23.9906C6.17518 23.3149 5.88199 22.609 5.65319 21.8813L7.64866 19.3866C7.8229 19.1689 7.9101 18.8943 7.89335 18.6159C7.86944 18.2094 7.86944 17.8018 7.89335 17.3953C7.9101 17.117 7.8229 16.8424 7.64866 16.6247L5.65319 14.1258C5.88216 13.3981 6.17535 12.6922 6.52928 12.0164L9.70319 11.6564C9.97996 11.6257 10.2355 11.4934 10.4204 11.2852C10.6911 10.9807 10.9794 10.6924 11.2838 10.4217C11.4929 10.2367 11.6257 9.9806 11.6565 9.70313L12.0094 6.52922C12.6851 6.17512 13.3911 5.88193 14.1188 5.65313L16.6135 7.6486C16.8312 7.82284 17.1058 7.91004 17.3841 7.89328C17.7907 7.86938 18.1982 7.86938 18.6048 7.89328C18.8831 7.91004 19.1577 7.82284 19.3754 7.6486L21.8743 5.65313C22.602 5.8821 23.3079 6.17529 23.9837 6.52922L24.3437 9.70313C24.3744 9.9799 24.5067 10.2354 24.7149 10.4203C25.0194 10.691 25.3077 10.9793 25.5783 11.2838C25.7632 11.492 26.0188 11.6243 26.2955 11.655L29.4708 12.008C29.825 12.6837 30.1181 13.3896 30.3469 14.1173L28.3515 16.612C28.1756 16.8315 28.0883 17.109 28.1068 17.3897H28.111Z" fill="url(#paint0_linear_378_530)"/>
  <defs>
    <linearGradient id="paint0_linear_378_530" x1="15.1022" y1="-1.59188" x2="28.9545" y2="0.69258" gradientUnits="userSpaceOnUse">
      <stop stop-color="#6A59A7"/>
      <stop offset="1" stop-color="#EDABC6"/>
    </linearGradient>
  </defs>
</svg>