<svg xmlns="http://www.w3.org/2000/svg" width="37" height="37" viewBox="0 0 37 37" fill="none">
  <path d="M11.5625 27.75C12.1758 27.75 12.764 27.9936 13.1977 28.4273C13.6314 28.861 13.875 29.4492 13.875 30.0625C13.875 30.6758 13.6314 31.264 13.1977 31.6977C12.764 32.1313 12.1758 32.375 11.5625 32.375C10.9492 32.375 10.361 32.1313 9.92732 31.6977C9.49364 31.264 9.25 30.6758 9.25 30.0625C9.25 29.4492 9.49364 28.861 9.92732 28.4273C10.361 27.9936 10.9492 27.75 11.5625 27.75ZM25.4375 27.75C26.0508 27.75 26.639 27.9936 27.0727 28.4273C27.5064 28.861 27.75 29.4492 27.75 30.0625C27.75 30.6758 27.5064 31.264 27.0727 31.6977C26.639 32.1313 26.0508 32.375 25.4375 32.375C24.8242 32.375 24.236 32.1313 23.8023 31.6977C23.3686 31.264 23.125 30.6758 23.125 30.0625C23.125 29.4492 23.3686 28.861 23.8023 28.4273C24.236 27.9936 24.8242 27.75 25.4375 27.75Z" stroke="url(#paint0_linear_378_457)" stroke-width="2.11429"/>
  <path d="M3.46743 3.53352C3.17794 3.43171 2.85987 3.44907 2.58318 3.58178C2.3065 3.71448 2.09386 3.95166 1.99205 4.24115C1.89024 4.53063 1.9076 4.8487 2.0403 5.12539C2.17301 5.40208 2.41019 5.61471 2.69968 5.71652L3.46743 3.53352ZM31.848 15.2363L32.9795 15.4691L32.9811 15.4629L31.848 15.2363ZM8.80005 15.0467V10.8503H6.48755V15.0467H8.80005ZM3.8698 3.67536L3.46743 3.53352L2.69968 5.71652L3.10205 5.85682L3.8698 3.67536ZM16.863 25.0521H25.0369V22.7396H16.863V25.0521ZM8.80005 10.8503C8.80005 9.76032 8.80159 8.85073 8.72297 8.11227C8.63817 7.34607 8.46088 6.64769 8.02613 6.01252L6.11601 7.31677C6.25476 7.52027 6.36267 7.80086 6.4228 8.36048C6.48601 8.94632 6.48755 9.70944 6.48755 10.8503H8.80005ZM3.10205 5.85682C4.13188 6.21911 4.80867 6.45961 5.30663 6.70627C5.77376 6.93444 5.98034 7.11944 6.11601 7.31832L8.02613 6.01252C7.5883 5.37119 7.00401 4.96111 6.32413 4.62657C5.67663 4.30898 4.84722 4.01915 3.8698 3.67536L3.10205 5.85682ZM6.48755 15.0467C6.48755 17.2867 6.50913 18.9009 6.7188 20.1342C6.94542 21.4508 7.39713 22.3943 8.23734 23.2823L9.91622 21.6913C9.42288 21.1702 9.15617 20.6614 8.99892 19.7442C8.82934 18.7421 8.80005 17.3422 8.80005 15.0467H6.48755ZM16.863 22.7396C14.6784 22.7396 13.163 22.7365 12.0206 22.5746C10.9183 22.4189 10.3371 22.1353 9.91622 21.6913L8.23734 23.2823C9.15309 24.2489 10.314 24.6698 11.6953 24.864C13.0365 25.0552 14.7493 25.0521 16.863 25.0521V22.7396ZM7.6438 10.5913H26.3442V8.27877H7.64534L7.6438 10.5913ZM30.7148 15.002L29.944 18.7405L32.2103 19.2061L32.9795 15.4691L30.7148 15.002ZM26.3473 10.5913C27.667 10.5913 28.8294 10.5928 29.7467 10.6946C30.2015 10.747 30.5437 10.8179 30.7827 10.9011C31.0309 10.989 31.071 11.0553 31.0509 11.0291L32.884 9.62002C32.5217 9.14827 32.0129 8.88157 31.5489 8.71969C31.0471 8.55472 30.5284 8.44613 30.0026 8.39594C28.9311 8.27723 27.6238 8.27877 26.3473 8.27877V10.5913ZM32.9811 15.4629C33.2432 14.1556 33.4652 13.0579 33.5191 12.1792C33.5762 11.2758 33.4729 10.3847 32.884 9.62002L31.0509 11.0291C31.1465 11.154 31.2513 11.3775 31.2113 12.0374C31.1696 12.7219 30.9893 13.6361 30.7148 15.0097L32.9811 15.4629ZM25.0369 25.0521C26.2116 25.0521 27.1983 25.0536 27.9938 24.9565C28.8186 24.8563 29.5725 24.6343 30.2292 24.0994L28.7677 22.3064C28.575 22.4636 28.3021 22.5901 27.7117 22.661C27.0904 22.7381 26.2702 22.7396 25.0369 22.7396V25.0521ZM29.9471 18.7405C29.6973 19.9477 29.5308 20.7493 29.3304 21.3429C29.1408 21.9071 28.9604 22.1492 28.7677 22.3064L30.2292 24.0994C30.8875 23.5629 31.256 22.8707 31.5211 22.0813C31.777 21.3228 31.9744 20.3577 32.2118 19.2077L29.9471 18.7405Z" fill="url(#paint1_linear_378_457)"/>
  <path d="M16.9585 16.65L18.7206 18.5L23.1252 13.875" stroke="url(#paint2_linear_378_457)" stroke-width="2.11429" stroke-linecap="round" stroke-linejoin="round"/>
  <defs>
    <linearGradient id="paint0_linear_378_457" x1="16.6773" y1="26.9837" x2="22.9088" y2="31.0944" gradientUnits="userSpaceOnUse">
      <stop stop-color="#6A59A7"/>
      <stop offset="1" stop-color="#EDABC6"/>
    </linearGradient>
    <linearGradient id="paint1_linear_378_457" x1="14.6158" y1="-0.108082" x2="29.0527" y2="3.37833" gradientUnits="userSpaceOnUse">
      <stop stop-color="#6A59A7"/>
      <stop offset="1" stop-color="#EDABC6"/>
    </linearGradient>
    <linearGradient id="paint2_linear_378_457" x1="19.4343" y1="13.1087" x2="22.2778" y2="13.734" gradientUnits="userSpaceOnUse">
      <stop stop-color="#6A59A7"/>
      <stop offset="1" stop-color="#EDABC6"/>
    </linearGradient>
  </defs>
</svg>