<svg xmlns="http://www.w3.org/2000/svg" width="16" height="17" viewBox="0 0 16 17" fill="none">
  <g clip-path="url(#clip0_479_953)">
    <path d="M8 3.54004C8 3.40743 7.94732 3.28025 7.85355 3.18649C7.75979 3.09272 7.63261 3.04004 7.5 3.04004C7.36739 3.04004 7.24021 3.09272 7.14645 3.18649C7.05268 3.28025 7 3.40743 7 3.54004V9.04004C7.00003 9.12817 7.02335 9.21473 7.06761 9.29095C7.11186 9.36716 7.17547 9.43033 7.252 9.47404L10.752 11.474C10.8669 11.5361 11.0014 11.5508 11.127 11.515C11.2525 11.4791 11.3591 11.3956 11.4238 11.2822C11.4886 11.1689 11.5065 11.0347 11.4736 10.9083C11.4408 10.782 11.3598 10.6735 11.248 10.606L8 8.75004V3.54004Z" fill="url(#paint0_linear_479_953)"/>
    <path d="M8 16.04C10.1217 16.04 12.1566 15.1972 13.6569 13.6969C15.1571 12.1966 16 10.1618 16 8.04004C16 5.91831 15.1571 3.88348 13.6569 2.38318C12.1566 0.882894 10.1217 0.0400391 8 0.0400391C5.87827 0.0400391 3.84344 0.882894 2.34315 2.38318C0.842855 3.88348 0 5.91831 0 8.04004C0 10.1618 0.842855 12.1966 2.34315 13.6969C3.84344 15.1972 5.87827 16.04 8 16.04ZM15 8.04004C15 9.89655 14.2625 11.677 12.9497 12.9898C11.637 14.3025 9.85652 15.04 8 15.04C6.14348 15.04 4.36301 14.3025 3.05025 12.9898C1.7375 11.677 1 9.89655 1 8.04004C1 6.18352 1.7375 4.40305 3.05025 3.09029C4.36301 1.77754 6.14348 1.04004 8 1.04004C9.85652 1.04004 11.637 1.77754 12.9497 3.09029C14.2625 4.40305 15 6.18352 15 8.04004Z" fill="url(#paint1_linear_479_953)"/>
  </g>
  <defs>
    <linearGradient id="paint0_linear_479_953" x1="8.80253" y1="1.63273" x2="10.9565" y2="1.82049" gradientUnits="userSpaceOnUse">
      <stop stop-color="#6A59A7"/>
      <stop offset="1" stop-color="#EDABC6"/>
    </linearGradient>
    <linearGradient id="paint1_linear_479_953" x1="6.42365" y1="-2.61085" x2="13.9535" y2="-1.36907" gradientUnits="userSpaceOnUse">
      <stop stop-color="#6A59A7"/>
      <stop offset="1" stop-color="#EDABC6"/>
    </linearGradient>
    <clipPath id="clip0_479_953">
      <rect width="16" height="16" fill="white" transform="translate(0 0.0400391)"/>
    </clipPath>
  </defs>
</svg>